<svg version="1" xmlns="http://www.w3.org/2000/svg" width="981.333" height="981.333" viewBox="0 0 736.000000 736.000000"><path d="M698 49.9c-1.9.9-6.4 2.9-10 4.5-3.6 1.5-8.3 3.7-10.5 4.7-2.2 1-11 4.9-19.5 8.8-8.5 3.8-18 8-21 9.4-3 1.4-8 3.5-11 4.8-3 1.3-5.8 2.8-6.2 3.3-.4.6-.8.8-.8.4 0-.6-3.8 1-19.5 8.2-2.2 1-17.3 7.8-33.5 15s-32.8 14.7-36.7 16.6c-4 1.9-7.5 3.4-7.7 3.4-.3 0-3.3 1.3-6.8 2.9-7.4 3.4-16.1 7.4-16.8 7.6-.3 0-3.6 1.6-7.4 3.3-3.8 1.8-7 3.2-7.2 3.2-.2 0-4.7 2-10 4.5s-9.8 4.5-10 4.5c-.3 0-4.8 2-10.1 4.5-5.2 2.5-9.7 4.5-9.9 4.5-.3 0-3.5 1.4-16.9 7.6-3.3 1.5-6.2 2.8-6.5 2.9-.3 0-2.7 1.1-5.5 2.4-2.7 1.3-8.4 3.8-12.5 5.6-4.1 1.8-11 4.9-15.3 6.9-4.3 2-8 3.6-8.2 3.6-.2 0-4.8 2.1-10.2 4.6-5.4 2.5-10.2 4.7-10.8 4.8-.5.1-1.4.4-2 .8-.5.3-7.3 3.4-15 6.8s-16.5 7.3-19.5 8.7c-3 1.4-6.8 3.1-8.5 3.8-1.6.7-6.1 2.8-10 4.5-3.8 1.8-13.1 5.9-20.5 9.2-7.4 3.3-15.7 7-18.5 8.3-2.7 1.2-7.2 3.2-10 4.5-2.7 1.2-7.9 3.6-11.5 5.2-6.7 3.1-11.1 5-12 5.3-.3 0-2.7 1.1-5.5 2.4-2.7 1.2-6.6 2.9-8.5 3.8-1.9.9-6.2 2.9-9.5 4.5s-6.2 3-6.5 3c-1.1.2-9.9 4-22.5 9.8-3.3 1.5-9.8 4.4-14.5 6.5-4.7 2.1-11.6 5.2-15.5 7-3.8 1.7-10.4 4.7-14.5 6.5-4.1 1.8-9.9 4.4-12.9 5.8-3 1.3-7.2 3.2-9.5 4.2-2.3.9-6.1 2.7-8.6 3.8-4.9 2.2-34.6 15.6-39.5 17.7-1.6.7-7 3.2-11.8 5.4-4.9 2.3-9.1 4.1-9.4 4.1-.5 0-5.8 2.4-18.1 8.1-4.5 2.2-8.4 3.9-8.6 3.9-.3 0-3.7 1.5-7.7 3.4l-7.2 3.4 3.9 2.1c2.1 1.2 5.9 3.5 8.4 5.1 2.5 1.6 5.2 3.3 6 3.7 1.3.6 11.2 6.6 21 12.8 1.9 1.2 3.9 2.2 4.4 2.3.5 0 1.2.4 1.5.9.3.5 6.9 4.7 14.6 9.4 7.7 4.6 14.2 8.6 14.5 8.9.4.4 21.2 13.2 26.8 16.5 3.1 1.8 48.3 29.6 60.5 37.2 6.5 4 12.2 7.3 12.7 7.3.6 0 1 .4 1 1 0 .5.7 1 1.5 1s1.5.4 1.5 1c0 .5.4 1 1 1 .5 0 6.1 3.1 12.2 6.9 6.2 3.9 13.7 8.5 16.7 10.3 3 1.8 7.3 4.5 9.5 6 2.3 1.5 4.7 2.8 5.4 2.8.6 0 1.2.4 1.2 1 0 .5.7 1 1.5 1s1.5.4 1.5.9.8 1.1 1.8 1.4c1.6.5 6.4 3.3 8.7 5 .5.4 4.6 3 9 5.7s8.5 5.4 9.2 6c.7.5 1.5 1 1.8 1 .4 0 4.4 2.4 9.1 5.2 4.6 2.9 9.2 5.7 10.2 6.3 3.1 1.8 17.5 10.7 22.9 14.2 2.8 1.8 5.6 3.3 6.1 3.3.6 0 1.2.3 1.4.8.3.7 11.5 7.9 17.6 11.2 1.5.8 2.9 1.8 3 2.2.2.5.7.8 1.2.8.9 0 11.2 6.1 12 7.1.3.4 2.3 1.6 4.5 2.8 4.6 2.4 7.8 4.4 8.5 5.1.3.3 5 3.2 10.4 6.5 5.5 3.3 11.4 6.9 13.2 8 1.7 1.1 5.8 3.6 9 5.5 3.3 1.9 8.5 5.1 11.6 7.2 3.1 2.1 6 3.8 6.3 3.8.4 0 2.5 1.3 4.8 2.9 3.6 2.4 31.8 19.7 44.2 27.1 2.2 1.3 4.2 2.8 4.3 3.2.2.4.8.8 1.3.8.8 0 21.9 12.7 24.4 14.7.6.5 2.1 1.4 3.5 2.1 1.4.7 4.5 2.5 7 4.1 10.6 6.7 21.7 13.5 24 14.8 2.7 1.5 3.2 1.1 9-6.7 1.4-1.8 6.9-9 12.3-15.9 5.3-6.9 9.7-13.1 9.7-13.7 0-.6-1-1.9-2.1-3-5.3-4.8-14.1-19.8-19.7-33.9-3.1-8-8-23.8-8.8-28.5-.1-.8-.7-4-1.4-7-.6-3-1.3-6.9-1.5-8.5-.3-1.7-.7-4.6-1-6.5-.8-5.2-1.5-10.7-2.2-18.5-.8-8.7-.8-49.7 0-58.5 1.2-13.5 1.8-18.6 2.2-21 .3-1.4.7-4.8 1-7.5.4-2.8.8-5.7 1-6.5.2-.8.7-3.3 1-5.5.6-4.9 1.2-8.1 1.9-10.3.3-.9.7-3.3 1-5.2.3-1.9.8-4.5 1.1-5.8.3-1.2.7-3.1 1-4.3.2-1.1.7-3 1.1-4.2.5-1.2.8-2.7.9-3.2.3-3.9 7.1-27.5 12-41.5 1.9-5.8 3.8-11.3 4-12.3.2-1 1.1-3.2 2-4.9.8-1.7 1.5-3.5 1.5-4s1.1-3.4 2.5-6.4c1.4-3 2.5-5.8 2.5-6.2.1-.4.9-2.5 2-4.7s1.9-4.6 2-5.3c0-.6.5-1.2 1-1.2.6 0 .9-.3.8-.8-.2-1 .9-3.6 4.7-11.7 1.8-3.9 4.1-8.8 5.1-11 1-2.2 2-4.2 2.3-4.5.4-.3 1.9-3.2 3.6-6.5 9.8-19.8 36.7-64 39.8-65.3.4-.2.7-.8.7-1.3 0-1.1 13-19.3 14.2-19.7.4-.2.8-1 .8-1.7s.4-1.5.8-1.7c.4-.2 2.9-3.1 5.5-6.5s5.3-6.8 6-7.5c.7-.7 1.9-2.2 2.7-3.4 1.4-1.9 8.2-10.2 10.5-12.8.6-.6 2.5-2.9 4.4-5.1 12.6-14.9 44-47.1 61.9-63.4 5.1-4.6 9.2-9 9.2-9.7 0-.8-4.2-7.8-9.3-15.6-5.2-7.9-10.4-16.2-11.8-18.5-1.3-2.4-2.9-4.4-3.4-4.7-.6-.2-2.6.4-4.5 1.3zm-92 95c-.5 1.1-1.6 2.5-2.2 3.3-4.4 4.6-22.6 28.7-30.8 40.8-3.6 5.2-6.9 9.9-7.3 10.5-2.9 3.6-20.3 31.6-27 43.5-33.6 59.4-58.6 127.6-68.2 186-.3 1.9-.8 4.2-1 5-.2.8-.5 3.2-.7 5.2-.1 2.1-.5 3.8-.8 3.8-.3 0-.5 1.5-.5 3.2-.1 1.8-.4 5.8-.8 8.8-.9 6.1-1.4 11.6-2.3 23.5-.9 10.6-.9 53.2-.1 62 1.1 11.5 1.7 16.8 2.2 20.5.3 1.9.7 4.8.9 6.5.2 1.6 1.6 8.7 3 15.7s2.6 13 2.6 13.3c0 .3-1.9-.7-4.3-2.3-2.3-1.6-5.8-3.9-7.7-4.9-1.9-1.1-7.3-4.4-12-7.3-4.7-2.9-9.4-5.8-10.5-6.4-1.1-.6-4.7-2.9-7.9-5-3.3-2.1-6.7-4.1-7.5-4.4-.9-.3-2-1-2.6-1.4-1.5-1.2-34.7-21.9-40.7-25.3-1-.6-4.4-2.6-7.5-4.6-8-5-38.8-24-42.4-26.1-1.6-1-4.2-2.6-5.8-3.5-1.7-1-8.3-5.1-14.8-9.1-14.3-8.9-39.9-24.6-44.3-27.2-5.1-3-19.3-11.8-23.7-14.6-2.8-1.9-5.4-3.4-5.8-3.4-.3 0-1.1-.5-1.8-1-2.3-1.9-18.9-12-19.8-12-.5 0-.9-.5-.9-1 0-.6-.4-1-1-1-.5 0-4.1-2-8-4.5-3.9-2.5-7.5-4.5-8-4.5-.6 0-1-.5-1-1 0-.6-.5-1-1.1-1-.6 0-3-1.4-5.4-3-2.4-1.7-4.8-3-5.4-3-.6 0-1.1-.5-1.1-1 0-.6-.5-1-1.1-1-.6 0-3.4-1.5-6.2-3.3-7.1-4.6-22.2-14-47.2-29.2-11.5-7-21.8-13.4-22.8-14.1-1.7-1.1-1.2-1.5 4.8-4.3 3.6-1.7 6.8-3.1 7-3.1.2 0 3.7-1.5 7.7-3.4s14.1-6.4 22.3-10.1c8.3-3.7 16.8-7.5 19-8.5 2.2-1 8.7-3.9 14.5-6.5 5.8-2.6 12.1-5.4 14-6.3 1.9-.9 3.7-1.6 4-1.7.3 0 2.5-1 5-2.2 11.3-5.2 33.8-15.3 34.3-15.2.1 0 3.5-1.6 7.5-3.6 4-1.9 7.4-3.5 7.7-3.5.3 0 13.9-6.1 29.5-13.2 2.5-1.1 8.6-3.8 13.5-6 5-2.2 11.8-5.3 15.3-6.9 3.5-1.6 6.5-2.9 6.7-2.9.2 0 3.6-1.5 7.7-3.4 4-1.9 14.1-6.4 22.3-10.1 19.2-8.6 19.4-8.6 29.8-13.4 4.9-2.3 9.1-4.1 9.2-4.1.2 0 5.9-2.5 12.7-5.6 6.8-3 13.7-6.1 15.3-6.9 1.7-.7 5.5-2.4 8.5-3.8 9.1-4.1 13.8-6.2 29.5-13.2 8.3-3.7 18.3-8.2 22.3-10.1 4.1-1.9 8-3.4 8.7-3.4.7 0 1.8-.7 2.5-1.5s1.8-1.5 2.4-1.5c.7 0 3-.8 5.2-1.9 2.1-1 5.7-2.6 7.9-3.6s5.8-2.6 8-3.6c2.2-.9 8.5-3.8 14-6.2 5.5-2.5 12.5-5.6 15.5-7 3-1.4 7.8-3.5 10.5-4.7 2.8-1.2 6.6-2.9 8.5-3.8 1.9-.9 3.7-1.7 4-1.8.3 0 2.8-1.1 5.5-2.4 2.8-1.3 5.2-2.4 5.5-2.5.3 0 2.8-1.2 5.5-2.5 2.8-1.3 5.2-2.4 5.5-2.5.8-.3 5.1-2.2 11-4.8 3-1.3 6-2.6 6.5-2.7.6-.1 1.9-.9 3-1.6 2.6-1.8 2.8-1.8 1.5.5z"/><path d="M531.5 207.9c-7.7 3.7-17.6 8.4-34 15.9-26.3 12-31.1 14.3-33.6 15.7-1.4.8-2.9 1.2-3.3.8-.3-.3-.6-.2-.6.4 0 .6-1 1.3-2.2 1.7-1.3.3-2.3.5-2.3.5s-2.2 1-5 2.4c-7.6 3.8-37.5 17.7-38 17.7-.1 0-4.9 2.2-10.6 4.9-5.7 2.6-14 6.5-18.4 8.6-9.1 4.3-16.8 7.8-17.5 8-.3.1-3.6 1.6-7.5 3.4-3.8 1.8-9.5 4.4-12.5 5.8-3 1.3-6.2 2.8-7 3.3-.8.6-2.2 1.3-3 1.6-1.5.5-2.6 1-17 7.7-9 4.2-19.8 9.1-26 11.9-2.5 1.1-5.2 2.4-6 2.9-.8.5-2.2 1.2-3 1.5-3.3 1.3-8 3.5-19.4 8.8-6.5 3.1-12 5.6-12.2 5.6-.2 0-5 2.2-10.6 4.8-5.7 2.7-11.9 5.6-13.8 6.5-1.9.8-8.4 3.9-14.5 6.7-6 2.8-15.9 7.4-22 10.2-15.8 7.1-15.4 6.9-14.8 8.4.3.8.9 1.4 1.3 1.4.7 0 33.9 20.8 35 22 1 1 4.5 3.1 6.3 3.6.9.4 1.7 1 1.7 1.5s.7.9 1.5.9 1.5.4 1.5.9.8 1.1 1.8 1.4c2 .7 7.1 3.7 8.8 5.3.7.6 4.3 2.9 8 5.3 3.8 2.3 9.5 5.9 12.6 7.9 3.2 2 8.6 5.5 12 7.6 3.5 2.2 11.5 7.4 17.8 11.5 6.3 4.2 12 7.8 12.5 8.1.6.3 5.5 3.3 11 6.8s10.9 6.9 11.9 7.5c1.1.7 2.5 1.5 3 2 1.4 1 14.7 9.5 28.6 18.2 6.1 3.8 11.8 7.6 12.5 8.3.7.6 1.6 1.2 1.8 1.2.5 0 40.1 25.1 42.3 26.7.5.4 1.9 1.3 3 2 6.8 4.1 22 13.8 22.4 14.2.3.3 1.5 1.2 2.8 1.9 2.4 1.3 2.7.6 1.3-3.1-1.2-3-4-15.8-4.6-20.7-.2-1.9-.8-6.2-1.2-9.5-1.4-12.2-.7-59.4 1.1-70 .3-1.7.7-5 1-7.5.3-2.5.8-5.4 1-6.5.5-2.6 2-11.7 2.1-13 .1-.6.7-3.5 1.3-6.5.7-3 1.3-6.4 1.5-7.5.2-1.1.7-2.7 1-3.5.5-1.5 1.6-5.7 2.3-9.5 1.7-9.2 13.9-44.9 19.5-57.4 1.6-3.5 2.9-7 2.9-7.7 0-.8.5-1.4 1-1.4.6 0 1-.7 1-1.5 0-3.3 24.9-49.3 27.2-50.3.5-.2.8-.8.8-1.4 0-1.2 19.5-29.7 21.4-31.3.6-.6 2.3-2.6 3.6-4.5 1.3-1.9 3.6-4.8 5.2-6.4 1.5-1.6 3-3.8 3.4-4.8.3-1 .9-1.8 1.3-1.8.5 0 2.5-2 4.5-4.5 2.1-2.5 3.4-4.5 2.9-4.5-.4 0-3.5 1.3-6.8 2.9z"/></svg>