<svg id="Layer_1" data-name="Layer 1" xmlns="http://www.w3.org/2000/svg" viewBox="0 0 456.19 137.04"><defs><style>.cls-1{fill:#39c;}.cls-2{fill:#cb1c68;}.cls-3{fill:#ffcd20;}.cls-4,.cls-6{fill:#999;}.cls-5,.cls-6{font-size:80px;font-family:MyriadPro-Regular, Myriad Pro;}.cls-5{fill:#ffcd05;}</style></defs><path class="cls-1" d="M43,116.09l-18.14-7.84m0,0-8.11-3.51V87.16L90.4,55.08V75.81L39,96,90.4,116V136.6L43,116.09"/><path class="cls-2" d="M0,137V116.31L51.42,96.1,0,76.1V55.52L73.68,87.38V105Z"/><polyline class="cls-1" points="44.95 98.35 68.12 107.38 46.31 117.47 22.32 107.17"/><path class="cls-3" d="M116.73,62.71c0,2.66-1.48,4.8-3.94,4.8-2.24,0-3.72-2.14-3.72-4.8s1.55-4.89,3.86-4.89S116.73,60,116.73,62.71Zm-6.89,55.1v-43H116v43Z"/><path class="cls-4" d="M126.28,86.44c0-4.54-.07-8.09-.28-11.65h5.47l.35,7.11H132c1.69-4,5.62-8,11.24-8,4.71,0,12,3.55,12,18.3v25.6H149V93c0-6.93-2-12.71-7.87-12.71-4,0-7.16,3.65-8.28,8a14.09,14.09,0,0,0-.42,3.65v25.86h-6.18Z"/><path class="cls-4" d="M194.32,111.5c0,10-1.61,15.9-4.84,19.73a16.27,16.27,0,0,1-12.43,5.15c-4.07,0-8.57-1.24-11.31-3.56l1.55-6a15.75,15.75,0,0,0,10,3.47c6.32,0,11-4.18,11-15.11v-4.71h-.14a11.7,11.7,0,0,1-10.81,7.2c-8.43,0-14.47-9.07-14.47-21,0-14.58,7.52-22.75,15.38-22.75,5.9,0,9.06,3.82,10.61,7.37h.14l.21-6.49h5.47c-.21,3-.28,6.58-.28,11.73Zm-6.18-19.73a12.92,12.92,0,0,0-.35-3.47c-1.12-4.62-4.07-8.35-8.63-8.35C173.26,80,169,86.26,169,96.21c0,8.44,3.44,15.46,10.05,15.46,3.86,0,7.3-3,8.56-8a17.11,17.11,0,0,0,.49-4.18Z"/><path class="cls-4" d="M208,97.72c.14,10.58,5.41,14.93,11.66,14.93a18.24,18.24,0,0,0,9.41-2.22l1.12,5.6a22.88,22.88,0,0,1-11.38,2.75c-10.46,0-16.71-8.79-16.71-21.77s6-23.1,15.94-23.1c11.17,0,14,12.26,14,20.17a24.05,24.05,0,0,1-.21,3.64Zm18.12-5.6c.07-4.88-1.62-12.62-8.57-12.62-6.32,0-9,7.2-9.48,12.62Z"/><path class="cls-4" d="M242.15,74.79l4.56,21.87c.92,4.79,1.83,9.24,2.46,13.68h.21c.77-4.35,1.9-9,3-13.6L258,74.79h5.2l5.26,21.51c1.27,5.15,2.25,9.69,3,14h.21c.56-4.35,1.48-8.89,2.6-14l4.84-21.6h6.11l-10.95,43h-5.62l-5.19-20.53c-1.2-4.8-2.18-9.07-3-14.13h-.14c-.85,5.15-1.9,9.6-3.09,14.22l-5.48,20.44h-5.62l-10.25-43Z"/><path class="cls-4" d="M298.26,62.71c0,2.66-1.48,4.8-3.93,4.8-2.25,0-3.73-2.14-3.73-4.8s1.55-4.89,3.87-4.89S298.26,60,298.26,62.71Zm-6.88,55.1v-43h6.18v43Z"/><path class="cls-4" d="M313.92,94.52h.14c.84-1.51,2-3.37,2.95-4.88l10-14.85h7.37L321.36,92.48l15,25.33h-7.58L317.08,97.19l-3.16,4.44v16.18h-6.11V54.71h6.11Z"/><path class="cls-4" d="M348.05,94.52h.14c.84-1.51,2-3.37,2.95-4.88l10-14.85h7.37L355.49,92.48l15,25.33h-7.59L351.21,97.19l-3.16,4.44v16.18h-6.11V54.71h6.11Z"/><path class="cls-4" d="M378.32,97.72c.14,10.58,5.4,14.93,11.65,14.93a18.18,18.18,0,0,0,9.41-2.22l1.13,5.6a22.88,22.88,0,0,1-11.38,2.75c-10.46,0-16.71-8.79-16.71-21.77s6-23.1,15.94-23.1c11.16,0,14,12.26,14,20.17a24.05,24.05,0,0,1-.21,3.64Zm18.11-5.6c.07-4.88-1.61-12.62-8.56-12.62-6.32,0-9,7.2-9.48,12.62Z"/><path class="cls-4" d="M410.06,54.71h6.18v63.1h-6.18Z"/><path class="cls-4" d="M455.91,54.71v52c0,3.82.14,8.17.28,11.11h-5.47l-.28-7.47h-.21c-1.83,4.8-5.9,8.44-11.45,8.44-8.22,0-14.61-8.79-14.61-21.86-.07-14.31,7-23,15.24-23a11,11,0,0,1,10.25,6.48h.14V54.71ZM449.8,92.3a17.41,17.41,0,0,0-.28-3.29c-.91-4.88-4.28-9-8.92-9-6.38,0-10.18,7.11-10.18,16.53,0,8.71,3.44,15.9,10.05,15.9,4.14,0,7.93-3.55,9-9.33a17,17,0,0,0,.28-3.37Z"/><text class="cls-5" transform="translate(104.22 66.96)">.</text><text class="cls-6" transform="translate(285.19 66.96)">.</text></svg>