<svg id="Laag_1" xmlns="http://www.w3.org/2000/svg" version="1.1" viewBox="0 0 443.7 120">
    <defs>
        <style>
            .st0 {
            fill: #91d2d7;
            }
            .powered-text {
                fill: #91d2d7;
                font-family: 'Space Grotesk', sans-serif;
                font-size: 28px;
                text-anchor: center;
            }
        </style>
    </defs>
    <path class="st0" d="M427.1 58.6h16v15.9h-16zM120.5 75.1v-56h13.7v8.1c1.7-3 3.9-5.3 6.6-7 2.7-1.6 6-2.5 10-2.5 6.3 0 10.9 1.8 13.9 5.5s4.4 8.7 4.4 15.1V75h-13.7V39.3c0-3.3-.7-5.8-2.1-7.7-1.4-1.8-3.7-2.7-7-2.7s-6.7 1.3-8.9 3.8c-2.1 2.5-3.2 5.8-3.2 9.9V75h-13.7ZM193.7 40.2h22v-2c0-3.1-1-5.6-3.1-7.5-2.1-1.9-4.7-2.9-7.9-2.9s-5.8 1-7.8 2.9c-2.1 1.9-3.1 4.4-3.1 7.5v2Zm-14.2 6.1c0-4.4.6-8.4 1.8-12 1.2-3.6 2.9-6.7 5.1-9.2 2.2-2.6 4.8-4.5 7.9-5.9 3.1-1.4 6.5-2.1 10.3-2.1s7.2.7 10.3 2c3.1 1.4 5.7 3.2 7.9 5.6 2.2 2.4 3.9 5.2 5 8.5 1.2 3.3 1.7 6.8 1.7 10.7v6.9h-36v3.7c0 3.4 1.1 6 3.3 7.8 2.2 1.8 4.8 2.8 7.8 2.8s5.5-.8 7.4-2.4c1.9-1.6 3-3.8 3.4-6.6h13.7c-.9 6.2-3.5 11-7.9 14.5-4.3 3.4-9.9 5.2-16.8 5.2s-7.5-.7-10.6-2.1c-3.1-1.4-5.8-3.4-7.9-6-2.2-2.6-3.8-5.7-5-9.3-1.1-3.6-1.7-7.6-1.7-12M237.2 74.4 256.5 45l-17.7-26.5h15.1l10.3 16.4 10.3-16.4h14.8L271.8 45l19.5 29.4h-14.9l-12.2-19.1-11.9 19.1h-15.1zM312.7 60.1c0 1.7.8 2.9 2.3 3.8 1.5.8 3.5 1.3 5.9 1.3 3.5 0 6.3-1.2 8.3-3.7 2-2.5 3-5.5 3-9v-2.2l-16.5 1.4c-2 .2-3.1 1.4-3.1 3.6v4.8Zm-14.3-1.6c0-4.5 1.6-8.4 4.7-11.7s7.7-5.2 13.6-5.7l15.5-1.3v-3.6c0-2.9-.8-5-2.4-6.4-1.6-1.3-3.7-2-6.4-2s-5.1.7-6.8 2c-1.8 1.3-2.6 3.3-2.6 5.9h-13.7c0-3.1.7-5.8 2-8.1s2.9-4.2 5-5.8c2.1-1.5 4.5-2.7 7.4-3.5 2.9-.8 6-1.2 9.3-1.2 6.7 0 12 1.6 15.9 4.9 3.9 3.3 5.8 8 5.8 14.3v27.4h9.4v10.7h-21.6v-8.7h-.6c-1.6 3.1-3.7 5.5-6.4 7.3-2.7 1.8-6.2 2.7-10.5 2.7s-4.9-.4-7-1.3c-2.1-.9-4-2.1-5.6-3.6-1.6-1.5-2.8-3.3-3.7-5.4-.9-2.1-1.3-4.4-1.3-7M375.5 60.1c0 1.7.8 2.9 2.3 3.8 1.5.8 3.5 1.3 5.9 1.3 3.5 0 6.3-1.2 8.3-3.7 2-2.5 3-5.5 3-9v-2.2l-16.5 1.4c-2 .2-3.1 1.4-3.1 3.6v4.8Zm-14.2-1.6c0-4.5 1.6-8.4 4.7-11.7s7.7-5.2 13.6-5.7l15.5-1.3v-3.6c0-2.9-.8-5-2.4-6.4-1.6-1.3-3.7-2-6.4-2s-5.1.7-6.8 2c-1.8 1.3-2.6 3.3-2.6 5.9h-13.7c0-3.1.7-5.8 2-8.1s2.9-4.2 5-5.8c2.1-1.5 4.5-2.7 7.4-3.5 2.9-.8 6-1.2 9.3-1.2 6.7 0 12 1.6 15.9 4.9 3.9 3.3 5.8 8 5.8 14.3v27.4h9.4v10.7h-21.6v-8.7h-.6c-1.6 3.1-3.7 5.5-6.4 7.3-2.7 1.8-6.2 2.7-10.5 2.7s-4.9-.4-7-1.3c-2.1-.9-4-2.1-5.6-3.6-1.6-1.5-2.8-3.3-3.7-5.4-.9-2.1-1.3-4.4-1.3-7"/>
    <path class="st0" d="M43.6 0C38.3 21.5 21.5 38.3 0 43.6c21.5 5.3 38.3 22.1 43.6 43.6V87v.2c5.3-21.5 22.1-38.3 43.6-43.6C65.8 38.3 49 21.5 43.6 0ZM43.6 87.3z"/>

    <!-- Added "Powered by Tilaa" text -->
    <text x="120" y="110" class="powered-text">Powered by Tilaa</text>
</svg>
