<?xml version="1.0" encoding="UTF-8" standalone="no"?>
<!-- Created with Inkscape (http://www.inkscape.org/) -->

<svg
   xmlns:dc="http://purl.org/dc/elements/1.1/"
   xmlns:cc="http://creativecommons.org/ns#"
   xmlns:rdf="http://www.w3.org/1999/02/22-rdf-syntax-ns#"
   xmlns:svg="http://www.w3.org/2000/svg"
   xmlns="http://www.w3.org/2000/svg"
   xmlns:sodipodi="http://sodipodi.sourceforge.net/DTD/sodipodi-0.dtd"
   xmlns:inkscape="http://www.inkscape.org/namespaces/inkscape"
   width="505.508"
   height="127.54688"
   id="svg2"
   version="1.1"
   inkscape:version="0.47 r22583"
   sodipodi:docname="New document 1">
  <defs
     id="defs4"><inkscape:perspective
   sodipodi:type="inkscape:persp3d"
   inkscape:vp_x="0 : 526.18109 : 1"
   inkscape:vp_y="0 : 1000 : 0"
   inkscape:vp_z="744.09448 : 526.18109 : 1"
   inkscape:persp3d-origin="372.04724 : 350.78739 : 1"
   id="perspective10" />

 <radialGradient
   fy="0"
   fx="16"
   r="107"
   cy="0"
   cx="16"
   gradientUnits="userSpaceOnUse"
   id="id1">
   <stop
   id="stop2830"
   style="stop-color:#DDDCE9"
   offset="0" />

   <stop
   id="stop2832"
   style="stop-color:#687197"
   offset="1" />

  </radialGradient>

  <linearGradient
   y2="84"
   x2="299"
   y1="84"
   x1="150"
   gradientUnits="userSpaceOnUse"
   id="id0">
   <stop
   id="stop2823"
   style="stop-color:#687197"
   offset="0" />

   <stop
   id="stop2825"
   style="stop-color:#656E94"
   offset="0.509804" />

   <stop
   id="stop2827"
   style="stop-color:#000000"
   offset="1" />

  </linearGradient>

  <style
   id="style2820"
   type="text/css">
   
    .str0 {stroke:#FFFFFF;stroke-width:2;stroke-linejoin:round}
    .fil3 {fill:#000000;fill-rule:evenodd}
    .fil2 {fill:#6C7EB7}
    .fil0 {fill:url(#id0)}
    .fil1 {fill:url(#id1)}
   
  </style>

  <inkscape:perspective
   id="perspective2851"
   inkscape:persp3d-origin="150 : 53 : 1"
   inkscape:vp_z="300 : 79.5 : 1"
   inkscape:vp_y="0 : 1000 : 0"
   inkscape:vp_x="0 : 79.5 : 1"
   sodipodi:type="inkscape:persp3d" />
</defs>
  <sodipodi:namedview
     id="base"
     pagecolor="#ffffff"
     bordercolor="#666666"
     borderopacity="1.0"
     inkscape:pageopacity="0.0"
     inkscape:pageshadow="2"
     inkscape:zoom="0.35"
     inkscape:cx="165.45337"
     inkscape:cy="199.76337"
     inkscape:document-units="px"
     inkscape:current-layer="layer1"
     showgrid="false"
     inkscape:window-width="1600"
     inkscape:window-height="838"
     inkscape:window-x="-8"
     inkscape:window-y="-8"
     inkscape:window-maximized="1" />
  <metadata
     id="metadata7">
    <rdf:RDF>
      <cc:Work
         rdf:about="">
        <dc:format>image/svg+xml</dc:format>
        <dc:type
           rdf:resource="http://purl.org/dc/dcmitype/StillImage" />
        <dc:title></dc:title>
      </cc:Work>
    </rdf:RDF>
  </metadata>
  <g
     inkscape:label="Layer 1"
     inkscape:groupmode="layer"
     id="layer1"
     transform="translate(-209.54663,-604.57867)">
    <g
       id="Layer 1"
       transform="matrix(0.60913462,0,0,0.60913462,208.9375,613.91712)">
  <path
   id="path2835"
   d="M 150,158 C 232,158 299,123 299,80 299,49 264,22 214,9 L 150,158 z"
   class="fil0"
   style="fill:url(#id0)" />

  <path
   id="path2837"
   d="M 150,158 C 117,158 86,152 61,142 25,128 1,105 1,80 1,37 68,2 150,2 c 23,0 45,2 64,7 l -64,149 z"
   class="fil1"
   style="fill:url(#id1)" />

  <ellipse
   id="ellipse2839"
   ry="73"
   rx="143"
   cy="80"
   cx="150"
   class="fil2"
   sodipodi:cx="150"
   sodipodi:cy="80"
   sodipodi:rx="143"
   sodipodi:ry="73"
   style="fill:#6c7eb7"
   d="m 293,80 c 0,40.31679 -64.02328,73 -143,73 C 71.023281,153 7,120.31679 7,80 7,39.683213 71.023281,7 150,7 228.97672,7 293,39.683213 293,80 z" />

  <path
   id="path2841"
   d="m 116,104 16,-81 19,0 -4,21 18,0 c 16,1 22,9 20,19 l -7,41 -20,0 7,-37 c 1,-5 1,-8 -6,-8 l -15,0 -9,45 -19,0 z"
   class="fil3 str0"
   style="fill:#000000;fill-rule:evenodd;stroke:#ffffff;stroke-width:2;stroke-linejoin:round" />

  <path
   id="path2843"
   d="m 45,125 16,-81 37,0 c 16,1 24,9 24,23 0,24 -19,38 -36,37 l -18,0 -4,21 -19,0 z m 27,-36 5,-30 13,0 c 7,0 12,3 12,9 -1,17 -9,20 -18,21 l -12,0 z"
   class="fil3 str0"
   style="fill:#000000;fill-rule:evenodd;stroke:#ffffff;stroke-width:2;stroke-linejoin:round" />

  <path
   id="path2845"
   d="m 179,125 15,-81 38,0 c 16,1 24,9 24,23 -1,24 -20,38 -37,37 l -17,0 -4,21 -19,0 z m 26,-36 6,-30 12,0 c 8,0 13,3 12,9 0,17 -8,20 -18,21 l -12,0 z"
   class="fil3 str0"
   style="fill:#000000;fill-rule:evenodd;stroke:#ffffff;stroke-width:2;stroke-linejoin:round" />

 </g>
    <text
       xml:space="preserve"
       style="font-size:144px;font-style:normal;font-variant:normal;font-weight:normal;font-stretch:normal;text-align:start;line-height:125%;writing-mode:lr-tb;text-anchor:start;fill:#000000;fill-opacity:1;stroke:none;font-family:Nyala;-inkscape-font-specification:Nyala"
       x="389.71429"
       y="699.2193"
       id="text2869"
       sodipodi:linespacing="125%"><tspan
         sodipodi:role="line"
         id="tspan2871"
         x="389.71429"
         y="699.2193"
         style="font-size:144px;font-style:italic;font-variant:normal;font-weight:normal;font-stretch:normal;text-align:start;line-height:125%;writing-mode:lr-tb;text-anchor:start;font-family:Nyala;-inkscape-font-specification:Nyala Italic">Stylus</tspan></text>
  </g>
</svg>
